<?xml version="1.0" encoding="utf-8"?>
<!-- Uploaded to: SVG Repo, www.svgrepo.com, Generator: SVG Repo Mixer Tools -->
<svg fill="#d11010" width="800px" height="800px" viewBox="0 0 32 32" version="1.1" xmlns="http://www.w3.org/2000/svg">
<title>ammo-bag</title>
<path d="M10.375 1c-0.491 0-0.937 0.459-0.937 0.937v1.875h0.937v1.875h-3.75c-4.265 0-4.688 3.321-4.687 4.687v16.875c0 0.734-0.937 1.875-0.937 1.875v1.875h30v-1.875c0 0-0.937-1.141-0.937-1.875v-16.876c0-1.367-0.422-4.687-4.687-4.687h-3.75v-1.875h0.937v-1.875c0-0.478-0.447-0.937-0.937-0.937h-11.25zM15.062 3.812h1.875c0.937 0 2.813 0 2.813 1.875h-7.5c0-1.875 1.875-1.875 2.812-1.875zM7.562 9.437h16.875c1.201 0 1.875 0.686 1.875 1.875v15c0 0.529-0.483 0.937-0.937 0.937h-18.75c-0.454 0-0.937-0.408-0.937-0.937v-15c0-1.189 0.674-1.875 1.875-1.875v0zM20.688 22.562h3.75v1.875h-3.75v-1.875zM20.688 21.625v-6.563c0-2.385 1.875-3.75 1.875-3.75s1.875 1.365 1.875 3.75v6.563h-3.751zM7.562 21.625v-6.563c0-2.385 1.875-3.75 1.875-3.75s1.875 1.365 1.875 3.75v6.563h-3.751zM14.125 21.625v-6.563c0-2.385 1.875-3.75 1.875-3.75s1.875 1.365 1.875 3.75v6.563h-3.751zM14.125 22.562h3.75v1.875h-3.75v-1.875zM7.562 22.562h3.75v1.875h-3.75c0 0 0-1.875 0-1.875z"></path>
</svg>