<!DOCTYPE svg PUBLIC "-//W3C//DTD SVG 1.1//EN" "http://www.w3.org/Graphics/SVG/1.1/DTD/svg11.dtd">
<!-- Uploaded to: SVG Repo, www.svgrepo.com, Transformed by: SVG Repo Mixer Tools -->
<svg fill="#d11010" height="800px" width="800px" version="1.1" id="Layer_1" xmlns="http://www.w3.org/2000/svg" xmlns:xlink="http://www.w3.org/1999/xlink" viewBox="0 0 511.999 511.999" xml:space="preserve">
<g id="SVGRepo_bgCarrier" stroke-width="0"/>
<g id="SVGRepo_tracerCarrier" stroke-linecap="round" stroke-linejoin="round"/>
<g id="SVGRepo_iconCarrier"> <g> <g> <circle cx="241.334" cy="284.853" r="16.708"/> </g> </g> <g> <g> <path d="M474.268,52.148L427.011,4.894c-6.524-6.525-17.103-6.525-23.628,0l-18.489,18.489L368.78,7.268 c-6.525-6.524-17.103-6.525-23.628,0c-6.525,6.525-6.525,17.103,0,23.628l16.114,16.115 c-14.083,14.083-196.828,196.828-202.518,202.517c-3.515,3.515-6.467,7.594-8.788,11.925H97.999 c-9.227,0-16.708,7.369-16.708,16.596s7.481,16.708,16.708,16.708h47.02c0.81,4.11,2.131,8.078,3.927,11.83L47.53,408.005 c-19.588,19.588-19.591,51.293,0,70.884l18.432,18.435c9.728,9.728,23.112,15.221,37.461,14.633h179.001 c83.187,0,151.076-67.131,151.472-149.726V116.037l40.372-40.261C480.793,69.251,480.793,58.673,474.268,52.148z M182.376,273.155 l89.618-89.617l23.628,23.628l-18.735,18.735c-6.525,6.525-6.525,17.103,0,23.628c6.524,6.525,17.103,6.525,23.628,0 l18.735-18.735l11.815,11.815c6.514,6.515,6.514,17.114,0,23.628l-72.911,73.134h-33.415 c-26.105-26.105-16.278-16.5-42.363-42.587C175.846,290.254,175.845,279.687,182.376,273.155z M241.445,403.11 c-11.209,11.21-27.957,12.575-40.47,5.242l25.46-35.79h24.038C252.72,383.402,249.511,395.044,241.445,403.11z M115.306,471.149 c-2.788,4.181-7.254,6.863-12.256,7.359c-4.668,0.462-9.754-1.105-13.461-4.812l-18.435-18.435 c-6.528-6.53-6.529-17.099,0.001-23.629l99.406-99.406l25.453,25.455l-80.422,113.051 C115.495,470.871,115.399,471.009,115.306,471.149z M282.422,478.652H151.045l30.516-43.009 c26.495,17.199,61.457,13.152,83.512-8.905c17.295-17.295,23.512-41.848,17.328-64.584l72.29-72.29 c19.59-19.589,19.591-51.293,0-70.884l-11.814-11.815l57.712-57.712V362.15h0.001 C400.282,426.328,347.272,478.652,282.422,478.652z M319.25,183.538l-23.628-23.628L415.196,40.336l23.628,23.628L319.25,183.538z "/> </g> </g> </g>
</svg>