# Blender 3.5.1
# www.blender.org
mtllib pillar.mtl
o Cube
v -0.500000 -1.000000 0.500000
v -0.500000 1.000000 0.500000
v -0.500000 -1.000000 -0.500000
v -0.500000 1.000000 -0.500000
v 0.500000 -1.000000 0.500000
v 0.500000 1.000000 0.500000
v 0.500000 -1.000000 -0.500000
v 0.500000 1.000000 -0.500000
v -0.500000 3.000000 0.500000
v -0.500000 3.000000 -0.500000
v 0.500000 3.000000 -0.500000
v 0.500000 3.000000 0.500000
v -0.500000 5.000000 0.500000
v -0.500000 5.000000 -0.500000
v 0.500000 5.000000 -0.500000
v 0.500000 5.000000 0.500000
v 0.170979 2.204576 0.500000
v -0.170979 2.204576 0.500000
v 0.170979 2.660519 0.500000
v -0.170979 2.660519 0.500000
v 0.170979 2.204576 0.595735
v -0.170979 2.204576 0.595735
v 0.170979 2.660519 0.595735
v -0.170979 2.660519 0.595735
v 0.075456 2.331940 0.595735
v -0.075456 2.331940 0.595735
v 0.075456 2.533155 0.595735
v -0.075456 2.533155 0.595735
v 0.075456 2.197869 0.823306
v -0.075456 2.197869 0.823306
v 0.075456 2.346347 0.959107
v -0.075456 2.346347 0.959107
v 0.187883 2.035263 0.803313
v -0.187883 2.035263 0.803313
v 0.187883 2.260321 1.250942
v -0.187883 2.260321 1.250942
vn -1.0000 -0.0000 -0.0000
vn -0.0000 -0.0000 -1.0000
vn 1.0000 -0.0000 -0.0000
vn -0.0000 -0.0000 1.0000
vn -0.0000 -1.0000 -0.0000
vn -0.0000 1.0000 -0.0000
vn 0.8455 0.4498 -0.2880
vn -0.0000 -0.8616 -0.5076
vn -0.0000 0.8894 0.4572
vn -0.0000 -0.8934 0.4492
vn -0.0000 0.9592 0.2827
vn -0.8455 0.4498 -0.2880
vn -0.0000 0.1220 -0.9925
vt 0.530034 0.008177
vt 0.007558 0.007558
vt 0.724216 0.007558
vt 0.530034 0.335506
vt 0.007558 0.335853
vt 0.366086 0.007558
vt 0.350969 0.007558
vt 0.886420 0.007558
vt 0.366086 0.334888
vt 0.350969 0.335699
vt 0.709099 0.989546
vt 0.171706 0.007558
vt 0.724216 0.171705
vt 0.709099 0.662217
vt 0.171706 0.335853
vt 0.186822 0.007558
vt 0.545151 0.990165
vt 0.886420 0.171705
vt 0.186822 0.335699
vt 0.545151 0.662836
vt 0.530034 0.662836
vt 0.007558 0.664147
vt 0.350969 0.663841
vt 0.366086 0.662217
vt 0.186822 0.663841
vt 0.545151 0.335506
vt 0.709099 0.334888
vt 0.171706 0.664147
vt 0.007558 0.992442
vt 0.885411 0.186822
vt 0.530034 0.990165
vt 0.724216 0.186822
vt 0.350969 0.991982
vt 0.366086 0.989546
vt 0.724216 0.350969
vt 0.186822 0.991982
vt 0.545151 0.008177
vt 0.171705 0.992442
vt 0.885411 0.350969
vt 0.709099 0.007558
vt 0.817563 0.601812
vt 0.117698 0.533581
vt 0.802034 0.530564
vt 0.817563 0.545681
vt 0.061566 0.533581
vt 0.802034 0.366086
vt 0.117698 0.608422
vt 0.802034 0.455943
vt 0.832679 0.601812
vt 0.061566 0.608422
vt 0.832679 0.545681
vt 0.802034 0.440708
vt 0.802034 0.601812
vt 0.817730 0.530505
vt 0.857145 0.631434
vt 0.802034 0.545681
vt 0.817730 0.366145
vt 0.801013 0.631434
vt 0.817730 0.455883
vt 0.848111 0.601812
vt 0.857145 0.706276
vt 0.848111 0.545681
vt 0.817730 0.440767
vt 0.801013 0.706276
vt 0.841465 0.652341
vt 0.825785 0.798190
vt 0.756571 0.378877
vt 0.756571 0.603527
vt 0.816693 0.652341
vt 0.801013 0.798190
vt 0.841465 0.685370
vt 0.786918 0.366086
vt 0.767442 0.745506
vt 0.786918 0.616318
vt 0.816693 0.685370
vt 0.742671 0.745506
vt 0.825785 0.831727
vt 0.750973 0.421725
vt 0.827793 0.764619
vt 0.801013 0.831727
vt 0.750973 0.560678
vt 0.827793 0.739847
vt 0.782090 0.432771
vt 0.767442 0.681143
vt 0.742671 0.681143
vt 0.782090 0.549633
vt 0.724216 0.430432
vt 0.785897 0.760623
vt 0.801013 0.783074
vt 0.724216 0.760623
vt 0.724216 0.551972
vt 0.801013 0.721393
vt 0.786918 0.483644
vt 0.785897 0.838897
vt 0.785897 0.631434
vt 0.724216 0.838897
vt 0.724216 0.631434
vt 0.786918 0.498760
s 0
f 1/1/1 2/4/1 4/9/1 3/6/1
f 3/7/2 4/10/2 8/19/2 7/16/2
f 7/17/3 8/20/3 6/14/3 5/11/3
f 5/12/4 6/15/4 2/5/4 1/2/4
f 3/8/5 7/18/5 5/13/5 1/3/5
f 4/9/1 2/4/1 9/21/1 10/24/1
f 9/22/4 12/28/4 16/38/4 13/29/4
f 12/28/4 9/22/4 20/50/4 19/47/4
f 8/19/2 4/10/2 10/23/2 11/25/2
f 6/14/3 8/20/3 11/26/3 12/27/3
f 15/35/6 14/32/6 13/30/6 16/39/6
f 11/25/2 10/23/2 14/33/2 15/36/2
f 12/27/3 11/26/3 15/37/3 16/40/3
f 10/24/1 9/21/1 13/31/1 14/34/1
f 18/44/5 17/41/5 21/53/5 22/56/5
f 2/5/4 6/15/4 17/42/4 18/45/4
f 6/15/4 12/28/4 19/47/4 17/42/4
f 9/22/4 2/5/4 18/45/4 20/50/4
f 21/55/4 23/61/4 27/71/4 25/65/4
f 17/43/3 19/48/3 23/59/3 21/54/3
f 19/49/6 20/51/6 24/62/6 23/60/6
f 20/52/1 18/46/1 22/57/1 24/63/1
f 28/74/1 26/68/1 30/81/1 32/86/1
f 23/61/4 24/64/4 28/75/4 27/71/4
f 24/64/4 22/58/4 26/69/4 28/75/4
f 22/58/4 21/55/4 25/65/4 26/69/4
f 29/78/7 31/83/7 35/93/7 33/87/7
f 26/70/8 25/66/8 29/77/8 30/80/8
f 25/67/3 27/72/3 31/83/3 29/78/3
f 27/73/9 28/76/9 32/85/9 31/84/9
f 34/90/10 33/88/10 35/94/10 36/96/10
f 31/84/11 32/85/11 36/97/11 35/95/11
f 32/86/12 30/81/12 34/91/12 36/98/12
f 30/82/13 29/79/13 33/89/13 34/92/13
